<svg xmlns="http://www.w3.org/2000/svg" viewBox="0 0 480 270" preserveAspectRatio="xMidYMid slice">
  <defs>
    <linearGradient id="lw" x1="0" y1="0" x2="0" y2="1">
      <stop offset="0" stop-color="#C8A8E8"/>
      <stop offset="0.55" stop-color="#7A4FA8"/>
      <stop offset="1" stop-color="#2E1B4F"/>
    </linearGradient>
  </defs>
  <rect width="480" height="270" fill="url(#lw)"/>
  <!-- 관람차 -->
  <g stroke="rgba(255,255,255,0.5)" stroke-width="2" fill="none">
    <circle cx="120" cy="140" r="60"/>
    <line x1="120" y1="80" x2="120" y2="200"/>
    <line x1="60" y1="140" x2="180" y2="140"/>
    <line x1="78" y1="98" x2="162" y2="182"/>
    <line x1="78" y1="182" x2="162" y2="98"/>
  </g>
  <g fill="rgba(255,220,150,0.85)">
    <circle cx="120" cy="80" r="6"/>
    <circle cx="120" cy="200" r="6"/>
    <circle cx="60" cy="140" r="6"/>
    <circle cx="180" cy="140" r="6"/>
    <circle cx="78" cy="98" r="5"/>
    <circle cx="162" cy="98" r="5"/>
    <circle cx="78" cy="182" r="5"/>
    <circle cx="162" cy="182" r="5"/>
  </g>
  <!-- 성 실루엣 -->
  <g fill="rgba(0,0,0,0.35)">
    <rect x="280" y="130" width="40" height="100"/>
    <polygon points="280,130 300,90 320,130"/>
    <rect x="325" y="110" width="50" height="120"/>
    <polygon points="325,110 350,70 375,110"/>
    <rect x="380" y="135" width="40" height="95"/>
    <polygon points="380,135 400,95 420,135"/>
    <rect x="270" y="220" width="170" height="50"/>
  </g>
  <!-- 별 -->
  <g fill="rgba(255,255,255,0.7)">
    <circle cx="240" cy="50" r="2"/>
    <circle cx="320" cy="40" r="2"/>
    <circle cx="400" cy="55" r="2"/>
    <circle cx="450" cy="35" r="2"/>
    <circle cx="60" cy="40" r="2"/>
    <circle cx="200" cy="60" r="2"/>
  </g>
</svg>
