<svg xmlns="http://www.w3.org/2000/svg" viewBox="0 0 480 270" preserveAspectRatio="xMidYMid slice">
  <defs>
    <linearGradient id="md" x1="0" y1="0" x2="0" y2="1">
      <stop offset="0" stop-color="#FFB6C1"/>
      <stop offset="0.55" stop-color="#E8506E"/>
      <stop offset="1" stop-color="#7A1F38"/>
    </linearGradient>
  </defs>
  <rect width="480" height="270" fill="url(#md)"/>
  <!-- 빌딩들 -->
  <g fill="rgba(0,0,0,0.3)">
    <rect x="20" y="80" width="50" height="190"/>
    <rect x="75" y="60" width="40" height="210"/>
    <rect x="120" y="100" width="55" height="170"/>
    <rect x="180" y="50" width="45" height="220"/>
    <rect x="230" y="90" width="60" height="180"/>
    <rect x="295" y="70" width="40" height="200"/>
    <rect x="340" y="55" width="50" height="215"/>
    <rect x="395" y="85" width="45" height="185"/>
    <rect x="445" y="95" width="35" height="175"/>
  </g>
  <!-- 창문 불빛 -->
  <g fill="rgba(255,235,180,0.7)">
    <rect x="30" y="100" width="6" height="6"/>
    <rect x="45" y="100" width="6" height="6"/>
    <rect x="30" y="120" width="6" height="6"/>
    <rect x="85" y="80" width="6" height="6"/>
    <rect x="100" y="80" width="6" height="6"/>
    <rect x="85" y="100" width="6" height="6"/>
    <rect x="135" y="120" width="6" height="6"/>
    <rect x="155" y="120" width="6" height="6"/>
    <rect x="195" y="70" width="6" height="6"/>
    <rect x="210" y="70" width="6" height="6"/>
    <rect x="195" y="90" width="6" height="6"/>
    <rect x="245" y="110" width="6" height="6"/>
    <rect x="265" y="110" width="6" height="6"/>
    <rect x="305" y="90" width="6" height="6"/>
    <rect x="320" y="90" width="6" height="6"/>
    <rect x="355" y="75" width="6" height="6"/>
    <rect x="370" y="75" width="6" height="6"/>
    <rect x="405" y="105" width="6" height="6"/>
    <rect x="420" y="105" width="6" height="6"/>
  </g>
</svg>
